:FULLY-SPECIFIED
:FORCE-ALL-JOINTS-BE-3DOF
:DEGREES
34
root 5.97919 16.8967 -28.0794 9.99905 -1.72282 -2.21018
lfemur -20.2591 1.50082 -19.7978
ltibia 34.0273 -0 0
lfoot -35.8348 4.18366 0.000179577
ltoes 36.1843 -0 0
rfemur -16.9696 6.06529 19.5121
rtibia 30.763 -0 0
rfoot -27.5167 -18.0834 -0.0029451
rtoes 13.1424 -0 0
lowerback -5.31208 2.46636 -0.94193
upperback -1.88724 3.32711 0.75174
thorax 0.923532 1.66705 1.49247
lowerneck -9.58648 -1.64092 2.7049
upperneck -2.73561 -2.45534 0.691165
head 0.717033 -1.23391 -0.320052
lclavicle 2.633e-14 9.83955e-15 -1.42958e-30
lhumerus -41.515 -12.533 96.799
lradius 38.7663 -0 0
lwrist 5.6127 0 0
lhand -11.5914 4.11802 0.00287189
lfingers 7.12502 -0 0
lthumb 14.4507 33.5945 0.00269596
rclavicle 2.633e-14 9.83955e-15 -1.42958e-30
rhumerus -40.6403 -5.02407 -88.8734
rradius 39.2932 -0 0
rwrist 10.746 0 0
rhand -26.7865 -20.2182 -0.000247151
rfingers 7.12502 -0 0
rthumb -0.213865 -50.1979 -0.000238719
35
root 5.96887 16.8971 -28.0803 10.0353 -1.68875 -2.16922
lfemur -20.2903 1.47254 -19.7993
ltibia 34.0051 -0 0
lfoot -35.7259 4.1874 0.000165003
ltoes 36.0138 -0 0
rfemur -16.9619 6.08283 19.504
rtibia 30.6957 -0 0
rfoot -27.4512 -18.1855 -0.00270608
rtoes 12.6861 -0 0
lowerback -5.39469 2.43234 -0.795606
upperback -1.86027 3.27587 0.633776
thorax 1.01506 1.63989 1.29228
lowerneck -9.5726 -1.61898 2.75224
upperneck -2.78302 -2.43049 0.792346
head 0.700402 -1.22083 -0.295128
lclavicle 2.12769e-14 9.19691e-15 -1.31356e-30
lhumerus -41.4964 -12.6399 96.7215
lradius 39.0596 -0 0
lwrist 5.80579 0 0
lhand -11.6406 3.98521 0.00263881
lfingers 7.12502 -0 0
lthumb 14.4034 33.4651 0.00247715
rclavicle 2.12769e-14 9.19691e-15 -1.31356e-30
rhumerus -40.5605 -5.02218 -89.0503
rradius 39.2326 -0 0
rwrist 10.7613 0 0
rhand -26.7695 -20.2513 -0.000227093
rfingers 7.12502 -0 0
rthumb -0.197469 -50.2309 -0.000219346
36
root 5.95903 16.8974 -28.0812 10.0698 -1.65632 -2.13018
lfemur -20.3201 1.44559 -19.8008
ltibia 33.9839 -0 0
lfoot -35.6221 4.19097 0.000144491
ltoes 35.8514 -0 0
rfemur -16.9545 6.09954 19.4963
rtibia 30.6315 -0 0
rfoot -27.3887 -18.2828 -0.00236967
rtoes 12.2514 -0 0
lowerback -5.47348 2.40013 -0.656131
upperback -1.83447 3.22709 0.521351
thorax 1.10236 1.6143 1.10149
lowerneck -9.55936 -1.59809 2.79735
upperneck -2.82815 -2.40673 0.888742
head 0.68456 -1.20837 -0.271381
lclavicle 1.64619e-14 8.58455e-15 -1.15027e-30
lhumerus -41.4785 -12.7418 96.6476
lradius 39.3392 -0 0
lwrist 5.98978 0 0
lhand -11.6874 3.85866 0.00231076
lfingers 7.12502 -0 0
lthumb 14.3583 33.3418 0.0021692
rclavicle 1.64619e-14 8.58455e-15 -1.15027e-30
rhumerus -40.4844 -5.02016 -89.2188
rradius 39.1749 -0 0
rwrist 10.7759 0 0
rhand -26.7533 -20.2828 -0.000198863
rfingers 7.12502 -0 0
rthumb -0.181845 -50.2624 -0.000192079
37
root 5.94987 16.8977 -28.0821 10.102 -1.62615 -2.09382
lfemur -20.3479 1.42051 -19.8022
ltibia 33.9641 -0 0
lfoot -35.5255 4.1943 0.000119589
ltoes 35.7002 -0 0
rfemur -16.9476 6.1151 19.489
rtibia 30.5718 -0 0
rfoot -27.3306 -18.3733 -0.00196127
rtoes 11.8467 -0 0
lowerback -5.54688 2.37032 -0.526271
upperback -1.81038 3.18174 0.416691
thorax 1.1837 1.59074 0.923872
lowerneck -9.54702 -1.57865 2.83935
upperneck -2.87013 -2.38455 0.978448
head 0.669818 -1.19676 -0.24928
lclavicle 1.198e-14 8.01455e-15 -9.52034e-31
lhumerus -41.4617 -12.8366 96.5788
lradius 39.5994 -0 0
lwrist 6.16105 0 0
lhand -11.7309 3.74086 0.00191251
lfingers 7.12502 -0 0
lthumb 14.3163 33.2271 0.00179535
rclavicle 1.198e-14 8.01455e-15 -9.52034e-31
rhumerus -40.4136 -5.01808 -89.3757
rradius 39.1212 -0 0
rwrist 10.7895 0 0
rhand -26.7382 -20.3121 -0.000164591
rfingers 7.12502 -0 0
rthumb -0.167301 -50.2918 -0.000158976
